HIERARCHY
ROOT Hips
{
	OFFSET -0.001795 -0.223333 0.028219
	CHANNELS 6 Xposition Yposition Zposition Zrotation Yrotation Xrotation 
	JOINT LeftUpLeg
	{
		OFFSET 0.069520 -0.091406 -0.006815
		CHANNELS 3 Zrotation Yrotation Xrotation
		JOINT LeftLeg
		{
			OFFSET 0.034277 -0.375199 -0.004496
			CHANNELS 3 Zrotation Yrotation Xrotation
			JOINT LeftFoot
			{
				OFFSET -0.013596 -0.397961 -0.043693
				CHANNELS 3 Zrotation Yrotation Xrotation
				JOINT LeftToe
				{
					OFFSET 0.026358 -0.055791 0.119288
					CHANNELS 3 Zrotation Yrotation Xrotation
					End Site
					{
						OFFSET 0.000000 0.000000 0.000000
					}
				}
			}
		}
	}
	JOINT RightUpLeg
	{
		OFFSET -0.067670 -0.090522 -0.004320
		CHANNELS 3 Zrotation Yrotation Xrotation
		JOINT RightLeg
		{
			OFFSET -0.038290 -0.382569 -0.008850
			CHANNELS 3 Zrotation Yrotation Xrotation
			JOINT RightFoot
			{
				OFFSET 0.015774 -0.398415 -0.042312
				CHANNELS 3 Zrotation Yrotation Xrotation
				JOINT RightToe
				{
					OFFSET -0.025372 -0.048144 0.123348
					CHANNELS 3 Zrotation Yrotation Xrotation
					End Site
					{
						OFFSET 0.000000 0.000000 0.000000
					}
				}
			}
		}
	}
	JOINT Spine
	{
		OFFSET -0.002533 0.108963 -0.026696
		CHANNELS 3 Zrotation Yrotation Xrotation
		JOINT Spine1
		{
			OFFSET 0.005487 0.135180 0.001092
			CHANNELS 3 Zrotation Yrotation Xrotation
			JOINT Spine2
			{
				OFFSET 0.001457 0.052922 0.025425
				CHANNELS 3 Zrotation Yrotation Xrotation
				JOINT Neck
				{
					OFFSET -0.002778 0.213870 -0.042857
					CHANNELS 3 Zrotation Yrotation Xrotation
					JOINT Head
					{
						OFFSET 0.005152 0.064970 0.051349
						CHANNELS 3 Zrotation Yrotation Xrotation
						End Site
						{
							OFFSET 0.000000 0.000000 0.000000
						}
					}
				}
				JOINT LeftShoulder
				{
					OFFSET 0.078845 0.121749 -0.034090
					CHANNELS 3 Zrotation Yrotation Xrotation
					JOINT LeftArm
					{
						OFFSET 0.090977 0.030469 -0.008868
						CHANNELS 3 Zrotation Yrotation Xrotation
						JOINT LeftForeArm
						{
							OFFSET 0.259612 -0.012772 -0.027456
							CHANNELS 3 Zrotation Yrotation Xrotation
							JOINT LeftHand
							{
								OFFSET 0.249234 0.008986 -0.001171
								CHANNELS 3 Zrotation Yrotation Xrotation
								End Site
								{
									OFFSET 0.000000 0.000000 0.000000
								}
							}
						}
					}
				}
				JOINT RightShoulder
				{
					OFFSET -0.081759 0.118833 -0.038615
					CHANNELS 3 Zrotation Yrotation Xrotation
					JOINT RightArm
					{
						OFFSET -0.096012 0.032551 -0.009143
						CHANNELS 3 Zrotation Yrotation Xrotation
						JOINT RightForeArm
						{
							OFFSET -0.253742 -0.013329 -0.021401
							CHANNELS 3 Zrotation Yrotation Xrotation
							JOINT RightHand
							{
								OFFSET -0.255298 0.007772 -0.005559
								CHANNELS 3 Zrotation Yrotation Xrotation
								End Site
								{
									OFFSET 0.000000 0.000000 0.000000
								}
							}
						}
					}
				}
			}
		}
	}
}
MOTION
Frames: 10
Frame Time: 0.050000
0.000000 0.817812 0.000000 0.262563 -8.331672 -5.149069 17.663609 1.111294 -8.700328 -4.286371 2.035772 39.495504 5.040663 5.067031 -21.315157 0.000000 0.000000 0.000000 -14.605186 0.249107 -20.763828 8.048511 -0.407168 46.151454 -5.642382 -6.347881 -18.542754 0.000000 0.000000 0.000000 5.046258 -1.378992 20.679129 -5.837807 1.890776 -27.012280 -2.715138 7.159605 24.181493 6.882318 -1.307990 -30.880044 0.000000 0.000000 0.000000 -23.269541 -10.287384 3.857903 -39.494665 -9.780740 -3.267908 -9.680499 -34.939023 4.457846 0.000000 0.000000 0.000000 27.371271 1.849797 0.217768 49.373083 10.887266 -2.860835 14.484489 28.566967 4.882989 0.000000 0.000000 0.000000 
-0.000856 0.818235 -0.001039 0.386217 -9.536179 -5.494762 17.887033 1.252545 -8.891786 -4.664193 2.572451 41.117064 4.698458 4.350133 -20.669187 0.000000 0.000000 0.000000 -13.807546 0.446005 -21.992994 7.119919 0.502378 48.837826 -5.355080 -4.858151 -18.530125 0.000000 0.000000 0.000000 5.409712 -1.422554 21.468605 -7.539062 2.275168 -27.252211 -1.771288 8.312067 23.622165 5.767590 -0.570761 -31.222525 0.000000 0.000000 0.000000 -24.024950 -11.304811 4.258136 -39.324993 -10.250562 -2.991404 -9.169919 -32.553534 3.931285 0.000000 0.000000 0.000000 26.259677 1.667867 0.303175 50.814343 10.611658 -2.979663 14.729843 27.189233 4.711917 0.000000 0.000000 0.000000 
-0.001340 0.820533 -0.002038 0.682933 -7.506643 -5.495742 17.226778 1.010931 -8.574560 -4.718764 2.112472 39.529937 4.922371 3.508339 -23.001031 0.000000 0.000000 0.000000 -14.183762 0.235773 -20.507487 6.922263 0.064870 46.951895 -5.400439 -4.283867 -20.082079 0.000000 0.000000 0.000000 5.467250 -1.518078 21.434829 -6.817388 2.128192 -27.134950 -3.244133 7.162492 23.980691 5.620743 -0.210941 -34.376944 0.000000 0.000000 0.000000 -24.682905 -11.073378 4.143767 -38.813102 -11.069925 -2.788135 -9.376853 -31.429986 3.846678 0.000000 0.000000 0.000000 28.827179 1.756970 0.342956 48.525705 11.305151 -2.803877 14.243752 26.849595 4.509149 0.000000 0.000000 0.000000 
-0.001695 0.824488 -0.003167 0.836216 -7.382314 -5.525681 16.884973 0.932275 -8.099474 -3.923343 1.644446 38.911558 4.332924 1.615983 -22.267667 0.000000 0.000000 0.000000 -14.713282 0.149269 -20.305468 6.766915 0.091109 46.413043 -5.253824 -3.490951 -20.203687 0.000000 0.000000 0.000000 5.895126 -1.633505 22.048453 -7.865883 2.367776 -27.473334 -3.428854 6.977428 23.166028 4.943248 0.123215 -34.212337 0.000000 0.000000 0.000000 -24.240243 -10.805188 3.938242 -38.549695 -11.287459 -2.637426 -9.092358 -31.181324 3.719206 0.000000 0.000000 0.000000 28.507365 1.485016 0.133178 48.552181 10.915210 -2.860911 15.992677 27.078059 4.960868 0.000000 0.000000 0.000000 
-0.002053 0.828577 -0.003945 0.888897 -6.461023 -5.242703 16.610215 0.843211 -8.259252 -4.453992 1.666389 37.185857 4.218119 1.490060 -21.294357 0.000000 0.000000 0.000000 -15.161877 0.040972 -19.140525 7.022547 -0.315014 44.441614 -5.146871 -3.829719 -19.471486 0.000000 0.000000 0.000000 5.844309 -1.649768 21.683335 -8.055232 2.437479 -26.784639 -3.387383 6.856409 22.620191 4.698946 0.356660 -34.650080 0.000000 0.000000 0.000000 -24.712580 -10.675041 3.670764 -37.992253 -11.249552 -2.502406 -11.581685 -31.125413 4.362406 0.000000 0.000000 0.000000 29.088914 0.927528 -0.108924 48.002009 10.848951 -2.877582 15.923893 27.181873 4.985739 0.000000 0.000000 0.000000 
-0.002234 0.830478 -0.004267 0.789942 -5.866008 -4.887902 16.943053 0.825599 -8.250945 -5.105332 1.815688 35.936567 4.020620 0.942368 -20.669176 0.000000 0.000000 0.000000 -15.279127 -0.002619 -18.795865 7.011062 -0.468574 43.465956 -4.993217 -3.382833 -19.374524 0.000000 0.000000 0.000000 5.681404 -1.664582 21.799687 -8.045091 2.397712 -27.820477 -3.004024 7.007042 22.958206 4.688290 0.385038 -34.173941 0.000000 0.000000 0.000000 -24.908851 -10.490645 3.409775 -38.567666 -10.769075 -2.648335 -12.175396 -30.235679 4.378846 0.000000 0.000000 0.000000 28.658155 0.576508 -0.132313 47.910733 10.382139 -3.128596 16.769427 27.074078 5.196236 0.000000 0.000000 0.000000 
-0.002308 0.832747 -0.004371 0.690125 -5.167586 -4.645493 16.676490 0.778133 -8.785012 -5.254755 1.750385 35.350789 3.967232 0.429947 -20.824376 0.000000 0.000000 0.000000 -15.186145 -0.027606 -18.292181 7.269858 -0.765773 42.343278 -4.905168 -3.489335 -19.013362 0.000000 0.000000 0.000000 5.541237 -1.658023 21.535150 -8.104608 2.416045 -27.824949 -2.780484 6.722659 22.976414 4.604770 0.436343 -34.148759 0.000000 0.000000 0.000000 -25.182861 -9.936371 3.030150 -38.689605 -10.542668 -2.703515 -12.845326 -29.623170 4.462032 0.000000 0.000000 0.000000 28.587913 0.714411 0.004090 47.504064 10.365495 -3.133845 16.290727 27.386745 5.148890 0.000000 0.000000 0.000000 
-0.002249 0.833570 -0.004398 0.521191 -4.609088 -4.344272 16.673870 0.767796 -9.399774 -5.600398 1.817552 35.199200 3.924338 -0.052268 -21.023816 0.000000 0.000000 0.000000 -15.003845 -0.034518 -18.171815 7.317622 -0.913209 41.854289 -4.842855 -3.364468 -19.063752 0.000000 0.000000 0.000000 5.470076 -1.680856 21.574710 -7.966306 2.379315 -27.977954 -2.594465 6.814618 22.882302 5.407412 0.045807 -33.499091 0.000000 0.000000 0.000000 -25.554271 -9.972600 2.882766 -38.628117 -9.690712 -2.882713 -13.171977 -29.354314 4.484070 0.000000 0.000000 0.000000 28.431969 0.554346 0.054126 47.160478 10.299016 -3.173277 15.959906 27.227890 5.047557 0.000000 0.000000 0.000000 
-0.002032 0.834774 -0.004311 0.338704 -4.252345 -4.125685 16.878908 0.776566 -9.715841 -5.976737 1.924619 35.001341 3.934355 -0.105379 -20.964518 0.000000 0.000000 0.000000 -14.946471 -0.043672 -18.037330 7.362334 -1.016866 41.018558 -4.678692 -3.033250 -18.692658 0.000000 0.000000 0.000000 5.611449 -1.712302 21.347912 -7.928931 2.375119 -27.855563 -2.500162 6.867500 22.792886 6.120059 -0.279676 -33.375497 0.000000 0.000000 0.000000 -25.497928 -10.107636 2.864271 -38.520268 -9.186740 -2.980777 -13.806357 -28.410218 4.474338 0.000000 0.000000 0.000000 28.649129 0.412676 0.053485 46.586100 10.567941 -3.084598 15.418473 27.006403 4.875493 0.000000 0.000000 0.000000 
-0.001731 0.836033 -0.004111 0.165759 -4.050951 -3.963439 17.189784 0.794514 -9.806305 -6.540419 2.134189 34.734077 3.901495 -0.011903 -20.522159 0.000000 0.000000 0.000000 -14.804511 -0.037806 -18.175148 7.437617 -1.098800 40.808785 -4.478897 -2.814319 -17.947082 0.000000 0.000000 0.000000 5.783954 -1.753846 21.297422 -8.067005 2.398976 -27.985140 -2.342082 6.811058 22.865628 6.820590 -0.651586 -33.135000 0.000000 0.000000 0.000000 -25.599590 -10.424935 3.035311 -38.215360 -8.341395 -3.196264 -14.572887 -28.480305 4.673870 0.000000 0.000000 0.000000 28.612684 0.424656 0.083482 46.180072 10.468656 -3.116341 15.214228 27.177369 4.856452 0.000000 0.000000 0.000000 
